<svg id="Capa_1" enable-background="new 0 0 510.023 510.023" height="512" viewBox="0 0 510.023 510.023" width="512" xmlns="http://www.w3.org/2000/svg"><g><g><path d="m168.479 260.593v5.74l-86.62 5.266-21.773 62.954-36.447 42.599 4.668 78.961h212.945v-195.52z" fill="#b3e5ee"/><path d="m99.762 260.593c-17.589 0-32.966 11.72-37.689 28.593l3.718 11.496-7.843 35.392-9.426 6.118-15.25 11c-9.94 7.172-16.479 17.952-18.33 29.87l6.35 9.559-.7 15.332-6.19 3.788v44.37h31.38v-51.691c0-14.61 7.02-28.32 18.87-36.87l5.347-3.857c6.398-4.615 10.971-11.33 12.923-18.973l10.29-40.309c4.43-17.34 20.04-29.46 37.93-29.46h27.877c4.934 0 8.934 4 8.934 8.934v172.229h73.3v-181.164-14.358h-141.491z" fill="#86d7e5"/><path d="m466.79 397.44.385-15.032 23.856-23.606c-.22-65.36-.87-138.5-.87-138.5 0-11.44-9.27-20.71-20.71-20.71h-260.79c-11.44 0-20.71 9.27-20.71 20.71v239h302.21c.62 0 .88-20.35.92-49.16z" fill="#dfae91"/><path d="m220.58 391.352v-191.759h-11.919c-11.438 0-20.71 9.272-20.71 20.71v239h302.21c.597 0 .86-18.893.915-46.037h-248.582c-12.102-.001-21.914-9.812-21.914-21.914z" fill="#d79c7a"/><g><path d="m495.622 467.707c3.812 0 6.901-3.09 6.901-6.901v-17.619c0-3.812-3.09-6.901-6.901-6.901h-481.221c-3.812 0-6.901 3.09-6.901 6.901v17.619c0 3.812 3.09 6.901 6.901 6.901z" fill="#e4e1e5"/></g><g><g><circle cx="110.21" cy="450.996" fill="#8f8390" r="40.857"/></g><circle cx="372.145" cy="450.996" fill="#8f8390" r="40.857"/><g id="XMLID_173_"><g><path d="m42.212 390.103v14.61c0 3.88-3.15 7.03-7.03 7.03h-20.68-.1v-21.68c0-2.36.18-4.7.54-7h1.56 18.68c3.88 0 7.03 3.15 7.03 7.04z" fill="#fbe372"/><path d="m127.522 299.663v32.05c0 5.79-4.69 10.48-10.48 10.48h-68.52l13.31-52.14c.07-.29.15-.58.24-.87h54.97c5.79 0 10.48 4.69 10.48 10.48z" fill="#edf9fa"/></g></g><g id="XMLID_144_"><g><path d="m491.032 358.803c.06 18.32.09 36.02.05 51.34h-.92-25.76c-7.34 0-13.28-5.95-13.28-13.28v-24.78c0-7.33 5.94-13.28 13.28-13.28h25.76z" fill="#e5827f"/></g></g><g id="XMLID_142_"><g><path d="m339.061 224.895c7.827 0 14.783-4.686 17.72-11.931l5.427-13.371h-46.302l5.438 13.399c2.952 7.231 9.906 11.903 17.717 11.903z" fill="#d79c7a"/><path d="m417.332 96.443c0 37.07-25.77 68.09-60.37 76.19l-14.08 34.69c-1.39 3.43-6.25 3.43-7.65 0l-14.08-34.69c-35.18-8.23-61.23-40.17-60.35-78.06.98-41.52 34.83-75.4 76.36-76.38 44.09-1.04 80.17 34.39 80.17 78.25zm-35.02 0c0-23.89-19.37-43.25-43.25-43.25-23.89 0-43.26 19.36-43.26 43.25s19.37 43.25 43.26 43.25c23.88 0 43.25-19.36 43.25-43.25z" fill="#e5827f"/></g></g></g><path d="m62.072 289.183c-.09.29-.17.58-.24.87l-13.31 52.14h35.045l9.645-37.782c1.464-5.731 4.155-10.886 7.741-15.228z" fill="#e1f5f8"/></g><g><path d="m110.21 441.964c-4.142 0-7.5 3.358-7.5 7.5v2.533c0 4.142 3.358 7.5 7.5 7.5s7.5-3.358 7.5-7.5v-2.533c0-4.143-3.357-7.5-7.5-7.5z"/><path d="m372.146 441.964c-4.142 0-7.5 3.358-7.5 7.5v2.533c0 4.142 3.358 7.5 7.5 7.5s7.5-3.358 7.5-7.5v-2.533c0-4.143-3.358-7.5-7.5-7.5z"/><path d="m497.661 428.947v-107.801c0-4.142-3.358-7.5-7.5-7.5s-7.5 3.358-7.5 7.5v30.158h-18.261c-11.458 0-20.78 9.322-20.78 20.779v24.775c0 11.458 9.322 20.78 20.78 20.78h18.261v11.146h-67.583c-8.06-15.516-24.273-26.146-42.933-26.146s-34.873 10.63-42.933 26.146h-72.053c-4.142 0-7.5 3.358-7.5 7.5s3.358 7.5 7.5 7.5h67.169c-.353 2.353-.54 4.761-.54 7.211 0 3.15.313 6.227.891 9.21h-167.002c.578-2.984.891-6.061.891-9.21 0-2.45-.187-4.858-.54-7.211h67.169c4.142 0 7.5-3.358 7.5-7.5s-3.358-7.5-7.5-7.5h-29.742v-208.487c0-7.284 5.925-13.209 13.209-13.209h91.053c4.142 0 7.5-3.358 7.5-7.5s-3.358-7.5-7.5-7.5h-91.053c-15.555 0-28.209 12.654-28.209 28.209v32.792h-80.697c-21.333 0-39.917 14.437-45.191 35.106l-12.636 49.509-13.048 9.409c-13.765 9.925-21.982 25.98-21.982 42.95v40.853c-4.13 2.534-6.901 7.079-6.901 12.271v17.619c0 7.941 6.46 14.401 14.401 14.401h53.976c8.379 14.422 23.987 24.147 41.834 24.147 17.846 0 33.454-9.725 41.833-24.147h178.268c8.379 14.422 23.987 24.147 41.834 24.147s33.455-9.725 41.834-24.147h81.643c7.941 0 14.401-6.46 14.401-14.401v-17.619c-.001-7.247-5.387-13.244-12.363-14.24zm-429.78-132.263h49.164c1.644 0 2.98 1.337 2.98 2.98v32.052c0 1.644-1.337 2.98-2.98 2.98h-58.865zm-45.98 93.88h12.811v13.682h-12.811zm-6.901 69.643v-16.421h47.393c-.353 2.353-.54 4.761-.54 7.211 0 3.15.313 6.227.891 9.21zm95.21 24.147c-18.394 0-33.357-14.964-33.357-33.357s14.964-33.357 33.357-33.357 33.357 14.964 33.357 33.357-14.963 33.357-33.357 33.357zm0-81.715c-18.66 0-34.873 10.63-42.933 26.146h-45.376v-9.539h13.276c8.015 0 14.535-6.521 14.535-14.536v-14.611c0-8.015-6.521-14.535-14.535-14.535h-10.368c2.666-6.433 7.067-12.116 12.848-16.284l13.291-9.584h66.098c9.915 0 17.98-8.066 17.98-17.98v-32.052c0-9.915-8.066-17.98-17.98-17.98h-43.276c5.783-8.33 15.382-13.594 25.988-13.594h80.697v160.696h-27.312c-8.06-15.517-24.273-26.147-42.933-26.147zm261.936 81.715c-18.394 0-33.357-14.964-33.357-33.357s14.964-33.357 33.357-33.357 33.357 14.964 33.357 33.357-14.964 33.357-33.357 33.357zm92.254-81.715c-3.187 0-5.78-2.593-5.78-5.78v-24.775c0-3.187 2.593-5.779 5.78-5.779h18.261v36.334zm30.623 57.568h-75.411c.578-2.984.891-6.061.891-9.21 0-2.45-.187-4.858-.54-7.211h75.06z"/><path d="m370.898 199.589c0 4.142 3.358 7.5 7.5 7.5h91.053c7.284 0 13.209 5.925 13.209 13.209v68.886c0 4.142 3.358 7.5 7.5 7.5s7.5-3.358 7.5-7.5v-68.886c0-15.555-12.655-28.209-28.209-28.209h-91.053c-4.142 0-7.5 3.357-7.5 7.5z"/><path d="m339.058 147.197c27.985 0 50.753-22.768 50.753-50.753s-22.768-50.753-50.753-50.753-50.753 22.768-50.753 50.753 22.767 50.753 50.753 50.753zm0-86.506c19.714 0 35.753 16.039 35.753 35.753s-16.039 35.753-35.753 35.753-35.753-16.039-35.753-35.753 16.038-35.753 35.753-35.753z"/><path d="m315.621 178.947 12.667 31.198c1.789 4.405 6.016 7.251 10.771 7.251s8.982-2.846 10.771-7.251l12.666-31.198c17.004-4.835 32.327-14.976 43.472-28.848 12.165-15.141 18.864-34.196 18.864-53.655 0-23.296-9.18-45.09-25.85-61.369-16.664-16.274-38.689-24.94-62.002-24.379-26.957.639-52.413 14.323-68.093 36.604-2.384 3.387-1.57 8.066 1.817 10.45s8.065 1.571 10.45-1.817c12.956-18.409 33.958-29.713 56.182-30.24 19.245-.451 37.417 6.687 51.167 20.115 13.754 13.433 21.33 31.416 21.33 50.638 0 33.037-22.443 61.365-54.578 68.888-2.37.555-4.323 2.226-5.239 4.481l-10.958 26.985-10.957-26.987c-.916-2.255-2.869-3.926-5.239-4.481-32.391-7.584-55.336-37.27-54.558-70.586.094-4.043.565-8.178 1.399-12.289.823-4.06-1.8-8.018-5.86-8.841-4.066-.823-8.018 1.8-8.841 5.86-1.009 4.976-1.579 9.996-1.694 14.92-.464 19.868 6.017 39.386 18.25 54.96 11.204 14.264 26.737 24.668 44.063 29.591z"/></g></g></svg>